<?xml version="1.0" encoding="UTF-8"?>
<svg xmlns="http://www.w3.org/2000/svg" xmlns:xlink="http://www.w3.org/1999/xlink" width="1500pt" height="400pt" viewBox="0 0 1500 400" version="1.1">
<g id="surface1">
<path style=" stroke:none;fill-rule:nonzero;fill:rgb(0%,0%,0%);fill-opacity:1;" d="M 188.789063 232.996094 C 188.789063 199.835938 156.40625 187.144531 129.460938 176.003906 C 114.4375 169.785156 90.085938 160.976563 90.085938 143.359375 C 90.085938 130.148438 103.554688 119.527344 123.761719 119.527344 C 146.300781 119.527344 158.734375 132.738281 160.289063 146.726563 L 183.605469 146.726563 C 183.605469 123.671875 161.585938 97.246094 124.539063 97.246094 C 92.933594 97.246094 65.992188 116.417969 65.992188 144.914063 C 65.992188 176.519531 98.890625 189.214844 124.800781 199.578125 C 149.152344 209.421875 164.695313 216.675781 164.695313 233.257813 C 164.695313 252.167969 144.746094 259.164063 128.945313 259.164063 C 106.921875 259.164063 85.9375 245.949219 84.386719 225.484375 L 61.070313 225.484375 C 61.070313 254.238281 88.53125 281.441406 128.683594 281.441406 C 160.550781 281.441406 188.789063 264.085938 188.789063 232.996094 Z M 188.789063 232.996094 "/>
<path style=" stroke:none;fill-rule:nonzero;fill:rgb(0%,0%,0%);fill-opacity:1;" d="M 310.546875 150.613281 L 272.464844 257.867188 L 269.617188 257.867188 L 230.496094 150.613281 L 206.921875 150.613281 L 254.070313 280.148438 L 264.695313 280.148438 L 260.808594 290.769531 C 256.402344 302.683594 252.777344 313.566406 239.046875 313.566406 C 231.015625 313.566406 225.316406 309.9375 223.503906 308.644531 L 213.398438 324.445313 C 217.027344 328.851563 227.90625 333.253906 240.082031 333.253906 C 271.6875 333.253906 279.71875 304.238281 286.195313 285.070313 L 333.863281 150.613281 Z M 310.546875 150.613281 "/>
<path style=" stroke:none;fill-rule:nonzero;fill:rgb(0%,0%,0%);fill-opacity:1;" d="M 446.558594 243.101563 C 446.558594 216.417969 422.464844 209.679688 402.777344 204.5 C 390.082031 201.132813 377.90625 196.988281 377.90625 185.070313 C 377.90625 174.449219 387.230469 167.714844 399.148438 167.714844 C 412.878906 167.714844 422.984375 176.519531 422.984375 186.105469 L 443.96875 186.105469 C 443.96875 168.230469 428.164063 149.320313 399.148438 149.320313 C 375.316406 149.320313 356.402344 162.273438 356.402344 185.328125 C 356.402344 211.234375 380.496094 218.230469 398.113281 222.894531 C 412.359375 226.78125 425.054688 230.925781 425.054688 244.136719 C 425.054688 256.832031 413.65625 262.789063 401.480469 262.789063 C 387.230469 262.789063 373.5 254.5 373.5 238.4375 L 352.515625 238.4375 C 352.515625 262.011719 371.945313 281.441406 401.738281 281.441406 C 427.128906 281.441406 446.558594 267.195313 446.558594 243.101563 Z M 446.558594 243.101563 "/>
<path style=" stroke:none;fill-rule:nonzero;fill:rgb(0%,0%,0%);fill-opacity:1;" d="M 536.195313 257.347656 C 533.863281 259.164063 531.011719 260.976563 525.832031 260.976563 C 517.023438 260.976563 509.25 255.535156 509.25 238.957031 L 509.25 169.527344 L 540.339844 169.527344 L 540.339844 150.613281 L 508.992188 150.613281 L 508.992188 111.753906 L 489.820313 111.753906 L 489.820313 135.070313 C 489.820313 145.691406 482.566406 152.945313 472.464844 152.945313 L 464.433594 152.945313 L 464.433594 169.785156 L 486.972656 169.785156 L 486.972656 241.027344 C 486.972656 264.601563 500.703125 281.441406 523.242188 281.441406 C 535.15625 281.441406 542.152344 276.519531 546.039063 273.152344 Z M 536.195313 257.347656 "/>
<path style=" stroke:none;fill-rule:nonzero;fill:rgb(0%,0%,0%);fill-opacity:1;" d="M 620.648438 149.320313 C 588.265625 149.320313 559.25 174.1875 559.25 214.34375 C 559.25 254.757813 588.265625 281.441406 620.90625 281.441406 C 644.484375 281.441406 666.761719 267.453125 676.605469 243.878906 L 652.773438 243.878906 C 646.554688 253.980469 635.675781 260.457031 620.90625 260.457031 C 598.628906 260.457031 583.601563 245.433594 581.53125 221.339844 L 679.457031 221.339844 C 682.046875 172.375 651.738281 149.320313 620.648438 149.320313 Z M 620.390625 168.488281 C 639.820313 168.488281 652.773438 182.480469 655.882813 202.425781 L 582.566406 202.425781 C 586.710938 181.703125 601.21875 168.488281 620.390625 168.488281 Z M 620.390625 168.488281 "/>
<path style=" stroke:none;fill-rule:nonzero;fill:rgb(0%,0%,0%);fill-opacity:1;" d="M 846.035156 149.320313 C 826.089844 149.320313 813.394531 160.460938 806.398438 170.042969 L 801.996094 170.042969 C 794.480469 159.421875 782.824219 149.320313 765.726563 149.320313 C 748.628906 149.320313 737.488281 159.421875 732.566406 165.121094 L 728.9375 165.121094 L 724.535156 150.613281 L 709.507813 150.613281 L 709.507813 280.148438 L 732.304688 280.148438 L 732.304688 206.3125 C 732.304688 182.480469 746.8125 169.007813 763.652344 169.007813 C 785.933594 169.007813 789.039063 192.582031 789.039063 217.710938 L 789.039063 280.148438 L 811.839844 280.148438 L 811.839844 204.5 C 812.617188 181.703125 826.863281 169.007813 843.1875 169.007813 C 865.464844 169.007813 868.574219 192.582031 868.574219 217.710938 L 868.574219 280.148438 L 891.371094 280.148438 L 891.371094 209.941406 C 891.371094 174.1875 875.828125 149.320313 846.035156 149.320313 Z M 846.035156 149.320313 "/>
<path style=" stroke:none;fill-rule:nonzero;fill:rgb(0%,0%,0%);fill-opacity:1;" d="M 940.851563 281.441406 C 949.402344 281.441406 956.398438 274.445313 956.398438 265.898438 C 956.398438 257.089844 949.402344 250.355469 940.851563 250.355469 C 932.304688 250.355469 925.308594 257.089844 925.308594 265.898438 C 925.308594 274.445313 932.304688 281.441406 940.851563 281.441406 Z M 940.851563 281.441406 "/>
<path style=" stroke:none;fill-rule:nonzero;fill:rgb(0%,0%,0%);fill-opacity:1;" d="M 1062.609375 281.441406 C 1110.019531 281.441406 1150.949219 242.582031 1150.949219 189.472656 C 1150.949219 136.367188 1109.761719 97.507813 1062.351563 97.507813 C 1014.949219 97.507813 973.753906 136.367188 973.753906 189.472656 C 973.753906 242.582031 1014.949219 281.441406 1062.609375 281.441406 Z M 1062.609375 258.644531 C 1024.789063 258.644531 998.367188 229.371094 998.367188 189.472656 C 998.367188 149.578125 1024.789063 120.304688 1062.351563 120.304688 C 1100.179688 120.304688 1126.601563 149.578125 1126.601563 189.472656 C 1126.601563 229.371094 1100.441406 258.644531 1062.609375 258.644531 Z M 1062.609375 258.644531 "/>
<path style=" stroke:none;fill-rule:nonzero;fill:rgb(0%,0%,0%);fill-opacity:1;" d="M 1240.589844 149.320313 C 1219.089844 149.320313 1207.429688 159.683594 1202.511719 165.382813 L 1199.398438 165.382813 L 1194.738281 150.613281 L 1179.710938 150.613281 L 1179.710938 280.148438 L 1202.511719 280.148438 L 1202.511719 206.3125 C 1202.511719 183.515625 1218.050781 169.007813 1237.480469 169.007813 C 1263.128906 169.007813 1267.019531 194.65625 1267.019531 217.710938 L 1267.019531 280.148438 L 1289.808594 280.148438 L 1289.808594 209.941406 C 1289.808594 173.929688 1273.488281 149.320313 1240.589844 149.320313 Z M 1240.589844 149.320313 "/>
<path style=" stroke:none;fill-rule:nonzero;fill:rgb(0%,0%,0%);fill-opacity:1;" d="M 1379.96875 149.320313 C 1347.589844 149.320313 1318.570313 174.1875 1318.570313 214.34375 C 1318.570313 254.757813 1347.589844 281.441406 1380.230469 281.441406 C 1403.800781 281.441406 1426.078125 267.453125 1435.929688 243.878906 L 1412.089844 243.878906 C 1405.871094 253.980469 1394.988281 260.457031 1380.230469 260.457031 C 1357.949219 260.457031 1342.921875 245.433594 1340.851563 221.339844 L 1438.78125 221.339844 C 1441.371094 172.375 1411.058594 149.320313 1379.96875 149.320313 Z M 1379.710938 168.488281 C 1399.140625 168.488281 1412.089844 182.480469 1415.199219 202.425781 L 1341.890625 202.425781 C 1346.03125 181.703125 1360.539063 168.488281 1379.710938 168.488281 Z M 1379.710938 168.488281 "/>
</g>
</svg>
